<?xml version="1.0" encoding="UTF-8" standalone="no"?>
<svg width="100%" height="100%" viewBox="0 0 420 420" version="1.1" xmlns="http://www.w3.org/2000/svg" xmlns:xlink="http://www.w3.org/1999/xlink">
  <defs>
    <linearGradient x1="50%" y1="0%" x2="50%" y2="100%" id="linearGradient-1">
      <stop stop-color="#E0E7FC" offset="0%"></stop>
      <stop stop-color="#0957EE" offset="100%"></stop>
    </linearGradient>
  </defs>
  <g stroke="none" stroke-width="1" fill="none" fill-rule="evenodd">
    <g stroke="url(#linearGradient-1)" stroke-width="12" fill="#D5EBFE" stroke-linecap="round" stroke-linejoin="round">
      <path d="M200.823242,182.618164 L151.827148,152.591797 L151.503906,96.4355469 L132.489258,83.8027344 L113.550781,96.4150391 L113.662109,129.839844 L80.0136719,109.793945 L61.5751953,120.701172 L61.9121094,142.514648 L95.0634766,162.557617 L67.0234375,179.475586 L65.9814453,200.900391 L84.5175781,210.591797 L132.926758,181.791016 L186.9375,213.241211 L132.961914,243.149414 L84.7988281,214.834961 L66.5234375,223.832031 L66.5234375,246.21875 L94.7822266,262.333984 L61.1865234,282.486328 L60.6650391,300.685547 L79.2880859,314.033203 L113.662109,294.170898 L113.303711,326.259766 L133.131836,338.566406 L147.381836,328.614258 L147.96582,272.8125 L200.802734,243.000977 L201.8125,303.706055 L152.956055,330.989258 L153.99707,350.045898 L169.439453,360.834961 L200.868164,343.9375 L200.515625,382.841797 L220.308594,396.863281 L236.510742,385.553711 L237.487305,343.686523 L265.981445,360.625977 L283.076172,351.618164 L284.107422,331.954102 L236.664062,303.490234 L237.097656,243.717773 L287.385742,273.385742 L288.985352,328.039062 L306.673828,339.661133 L322.810547,328.733398 L323.123047,292.401367 L358.727539,315.256836 L376.666016,305.773438 L376.666016,281.549805 L341.427734,262.842773 L370.84668,245.609375 L373.19043,225.423828 L355.241211,213.704102 L307.082031,241.365234 L254.806641,210.242188 L306.188477,180.931641 L354.083984,209.436523 L370.286133,201.276367 L370.796875,178.666992 L341.430664,162.204102 L376.568359,142.595703 L377.307617,120.878906 L359.150391,109.711914 L325.335938,129.657227 L325.34668,95.8847656 L307.775391,84.9570312 L287.666992,96.1552734 L287.604492,151.835938 L238.524414,181.02832 L237.243164,122.09082 L284.232422,95.5585938 L284.243164,73.8505859 L268.085938,62.3359375 L238.981445,79.9375 L237.939453,39.9755859 L220.237305,28.9716797 L200.919922,40.5068359 L200.680664,81.7558594 L172.605469,63.2861328 L155.361328,73.1728516 L154.542969,94.4648438 L201.324219,121.769531 L200.823242,182.618164 Z"></path>
    </g>
  </g>
</svg>
