<?xml version="1.0" encoding="UTF-8" standalone="no"?>
<svg width="420px" height="420px" viewBox="0 0 420 420" version="1.1" xmlns="http://www.w3.org/2000/svg" xmlns:xlink="http://www.w3.org/1999/xlink">
  <defs>
    <radialGradient cx="49.0178913%" cy="82.3620154%" fx="49.0178913%" fy="82.3620154%" r="61.1447704%" id="radialGradient-1">
      <stop stop-color="#FFFFFF" offset="0%"></stop>
      <stop stop-color="#F9E136" offset="41.7649872%"></stop>
      <stop stop-color="#D90909" offset="100%"></stop>
    </radialGradient>
  </defs>
  <g stroke="none" stroke-width="1" fill="none" fill-rule="evenodd">
    <g transform="translate(61.000000, 33.000000)">
      <path d="M67.1152344,139.265625 C63.1497396,128.767578 61.3085938,105.738281 61.3085938,105.738281 C61.3085938,105.738281 37.1015625,157.121094 30.0292969,182.207031 C22.9570312,207.292969 18.875,256.253906 18.875,256.253906 C18.875,256.253906 17.6601562,303.916016 44.1132812,328.105469 C50.6280629,334.956009 64.8168298,342.929065 77.6855469,347.126953 C111.603516,355.439453 111.457031,353.607422 111.457031,353.607422 C111.457031,353.607422 117.858073,353.641602 121.146484,352.599609 C124.434896,351.557617 131.1875,347.355469 131.1875,347.355469 C131.1875,347.355469 141.393229,350.78125 146.230469,351.537109 C151.067708,352.292969 160.210938,351.890625 160.210938,351.890625 C160.210938,351.890625 173.13151,350.972982 178.919922,350.169922 C184.708333,349.366862 194.941406,347.072266 194.941406,347.072266 L214.302734,349.564453 C214.302734,349.564453 248.773438,349.335938 278.474609,313.576172 C292.248698,296.452474 296.947266,246.822266 296.947266,246.822266 C296.947266,246.822266 294.247721,213.433919 284.115234,189.277344 C273.982747,165.120768 236.152344,101.882812 236.152344,101.882812 C236.152344,101.882812 233.557292,128.972331 228.923828,138.558594 C224.290365,148.144857 208.351563,159.400391 208.351563,159.400391 C208.351563,159.400391 178.327474,114.649414 169.740234,91.0820312 C157,63.4492187 156.828125,17.9960938 156.828125,17.9960938 C156.828125,17.9960938 128.057943,64.1126302 116.103516,89.234375 C104.149089,114.35612 85.1015625,168.726562 85.1015625,168.726562 C85.1015625,168.726562 71.0807292,149.763672 67.1152344,139.265625 Z" stroke-opacity="0.8" stroke="#EB0000" stroke-width="6" stroke-linecap="round" stroke-linejoin="round" fill="url(#radialGradient-1)"></path>
      <path d="M15.0332031,128.658203 C14.8912354,135.817228 17.6542518,142.864448 17.2285156,145.9375 C16.273763,152.829102 12.5058594,152.1875 12.5058594,152.1875 C12.5058594,152.1875 4.58951823,152.140625 2.57421875,150.103516 C0.558919271,148.066406 0.4140625,139.964844 0.4140625,139.964844 C0.4140625,139.964844 3.86197917,130.428711 6.83203125,125.574219 C9.80208333,120.719727 18.234375,110.837891 18.234375,110.837891 C18.234375,110.837891 15.2096111,119.762456 15.0332031,128.658203 Z" fill="#E80000"></path>
      <path d="M86.6074219,54.3984375 C83.5146484,57.4726562 72.4882813,55.1679687 72.4882813,55.1679687 C72.4882813,55.1679687 68.313151,53.0751953 70.3144531,43.953125 C71.2031925,39.902191 77.5702656,34.5162455 80.515625,25.7226562 C84.2027547,14.7144568 84.4960938,0.435546875 84.4960938,0.435546875 C84.4960938,0.435546875 91.90625,15.1601562 92.3984375,36.4863281 C92.5629417,43.6141921 89.7001953,51.3242187 86.6074219,54.3984375 Z" fill="#E80000"></path>
      <path d="M209.646484,77.7666016 C221.018555,101.331055 219.164062,109.234375 216.754883,112.279297 C214.345703,115.324219 205.604167,113.231445 202.416992,110.370117 C199.229818,107.508789 197.631836,95.1113281 197.631836,95.1113281 C197.631836,95.1113281 198.282064,81.6516927 200.169922,75.4609375 C202.05778,69.2701823 208.958984,57.9667969 208.958984,57.9667969 C208.958984,57.9667969 205.095502,68.3363571 209.646484,77.7666016 Z" fill="#EB0000"></path>
      <path d="M289.095703,151.357422 C285.693848,152.626628 279.073435,154.813529 276.789062,149.020508 C273.786133,141.405273 273.692383,139.870117 285.091797,127.189453 C289.095704,115.368164 289.095704,105 289.095704,105 C289.095704,105 297.200196,112.430664 297.200195,141.405273 C293.14795,149.020508 292.497559,150.088216 289.095703,151.357422 Z" fill="#EB0000"></path>
    </g>
  </g>
</svg>
